<svg xmlns="http://www.w3.org/2000/svg" viewBox="-258.64 25.36 517.28 401.68" width="517.28mm" height="401.68mm" data-model="strobe-xenon-no-clamp" data-view="front" data-pose="tilted" data-hinge="0 262.4" data-bracket="-90" data-generator="tosklight.model-drawing" data-generator-version="2">
  <title>strobe-xenon-no-clamp — front</title>
  <g id="silhouette" fill="#1b1f24" stroke="none"><path id="silhouette-body" fill-rule="evenodd" d="M-210.14 112.44 L-209.99 412.41 L210.15 412.25 L209.99 112.29 Z"/><path id="silhouette-hardware" fill-rule="evenodd" d="M-244 40.15 L-243.85 310.54 L-224.02 310.54 L-223.87 294.52 L-210.14 294.22 L-210.14 230.47 L-223.87 230.17 L-223.72 72.03 L223.72 72.03 L223.87 230.17 L210.15 230.47 L210.15 294.22 L223.87 294.52 L224.02 310.54 L244 310.38 L243.85 40 Z"/></g>
  <g id="lines" fill="none" stroke="#d7dde4" stroke-width="1.22" stroke-linecap="round" stroke-linejoin="round">
    <g id="base">
      <path d="M-187.89 136.4 L-210 136.4 L-210 112.4 L-210 412.4 L-196 412.4 L-196 112.4 L-210 112.4 L-210 126.4 L210 126.4 L210 112.4 L-210 112.4 L-186 112.4 L-186 134.5"/>
      <path d="M-186.07 388.4 L-210 388.4 L-210 412.4 L210 412.4 L210 112.4 L196 112.4 L196 412.4 L210 412.4 L210 398.4 L-210 398.4 L-210 412.4 L-186 412.4 L-186 390.14"/>
      <path d="M186 134.5 L186 112.4 L210 112.4 L210 136.4 L187.89 136.4"/>
      <path d="M186.07 388.4 L210 388.4 L210 412.4 L186 412.4 L186 390.14"/>
      <path d="M-150.85 262.4 L150.85 262.4"/>
      <path d="M-150.85 267.1 L150.85 267.1"/>
      <path d="M-150.85 270.01 L150.85 270.01"/>
      <path d="M-150.85 254.79 L150.85 254.79"/>
      <path d="M-150.85 257.7 L150.85 257.7"/>
      <path d="M-181 262.4 L-181 271.59 L-151 271.59 L-151 262.4 L-181 262.4 L-181 251.08"/>
      <path d="M-181 271.59 L-181 273.72"/>
      <path d="M-151 271.59 L-151 275.4 L-180.24 275.4"/>
      <path d="M-151 262.4 L-151 249.4 L-180.24 249.4"/>
      <path d="M-181 253.21 L-151 253.21"/>
      <path d="M151 262.4 L151 271.59 L181 271.59 L181 262.4 L151 262.4 L151 249.4 L180.24 249.4"/>
      <path d="M151 271.59 L151 275.4 L180.24 275.4"/>
      <path d="M181 271.59 L181 273.72"/>
      <path d="M181 262.4 L181 251.08"/>
      <path d="M151 253.21 L181 253.21"/>
      <path d="M-186 134.35 L-186 140.22 L186 140.22 L186 134.35 Z"/>
      <path d="M-186 140.22 L-186 140.52"/>
      <path d="M186 140.22 L186 140.52"/>
      <path d="M176.24 146.45 L-176.24 146.45"/>
      <path d="M-188.05 136.4 L-188.05 388.4 L-182.18 388.4 L-182.18 136.4 Z"/>
      <path d="M-182.18 388.4 L-181.88 388.4"/>
      <path d="M-182.18 136.4 L-181.88 136.4"/>
      <path d="M-175.95 146.16 L-175.95 249.52"/>
      <path d="M-175.95 275.59 L-175.95 378.49"/>
      <path d="M-186 384.58 L-186 390.45 L186 390.45 L186 384.58 L-186 384.58 L-186 384.28"/>
      <path d="M186 384.58 L186 384.28"/>
      <path d="M-176.24 378.35 L176.24 378.35"/>
      <path d="M182.18 136.4 L182.18 388.4 L188.05 388.4 L188.05 136.4 L181.88 136.4"/>
      <path d="M182.18 388.4 L181.88 388.4"/>
      <path d="M175.95 146.16 L175.95 249.52"/>
      <path d="M175.95 275.59 L175.95 378.49"/>
    </g>
    <g id="hardware">
      <path d="M-244 72 L244 72 L244 40 L-244 40 L-244 310.41 L-224 310.41 L-224 72 Z"/>
      <path d="M244 72 L244 310.41 L224 310.41 L224 72 Z"/>
      <path d="M-223.72 294.41 L-210 294.41 L-210 230.41 L-223.72 230.41"/>
      <path d="M-244 294.11 L-244 293.97"/>
      <path d="M-244 293.67 L-244 293.52"/>
      <path d="M-244 293.23 L-244 283.58"/>
      <path d="M-244 230.71 L-244 230.85"/>
      <path d="M-244 231.15 L-244 231.3"/>
      <path d="M-244 231.59 L-244 235.46"/>
      <path d="M-244 235.76 L-244 236.98"/>
      <path d="M-244 237.28 L-244 239.56"/>
      <path d="M-244 239.87 L-244 250.37"/>
      <path d="M-244 250.68 L-244 251.29"/>
      <path d="M-244 251.59 L-244 252.2"/>
      <path d="M-244 252.5 L-244 253.11"/>
      <path d="M-244 253.42 L-244 266.37"/>
      <path d="M-244 266.68 L-244 267.29"/>
      <path d="M-244 267.59 L-244 268.2"/>
      <path d="M-244 268.5 L-244 269.11"/>
      <path d="M-244 269.42 L-244 279.17"/>
      <path d="M-244 279.47 L-244 280.69"/>
      <path d="M-244 281 L-244 283.28"/>
      <path d="M223.72 230.41 L210 230.41 L210 294.41 L223.72 294.41"/>
    </g>
  </g>
  <g id="origin" fill="none" stroke="#e5484d" stroke-width="1.22"><path d="M-14.64 0 H14.64 M0 -14.64 V14.64"/></g>
</svg>
