<svg xmlns="http://www.w3.org/2000/svg" viewBox="-357.67 -949.97 732.34 977.64" width="732.34mm" height="977.64mm" data-model="rack-14u-wheels" data-view="side" data-pose="authored-home" data-generator="tosklight.model-drawing" data-generator-version="2">
  <title>rack-14u-wheels — side</title>
  <g id="silhouette" fill="#1b1f24" stroke="none"><path fill-rule="evenodd" d="M-330 -922.01 L-330 -862.64 L-320.2 -862.06 L-320.2 -140.36 L-330 -139.79 L-330 -80.41 L-275.53 -80.12 L-274.95 -65.71 L-259.67 -65.43 L-271.2 -53.9 L-271.78 -51.01 L-272.36 -50.44 L-272.36 -48.71 L-272.93 -48.13 L-272.93 -46.4 L-274.09 -44.1 L-274.09 -42.37 L-274.66 -41.79 L-274.66 -40.06 L-275.81 -37.76 L-275.81 -34.3 L-274.66 -31.99 L-273.51 -25.65 L-271.78 -21.04 L-271.78 -19.31 L-271.2 -18.16 L-257.66 -4.61 L-251.89 -3.46 L-247.28 -1.73 L-245.55 -1.73 L-244.98 -1.15 L-243.25 -1.15 L-240.94 0 L-239.21 0 L-234.6 -1.73 L-232.87 -1.73 L-232.29 -2.31 L-230.56 -2.31 L-225.95 -4.04 L-222.49 -4.61 L-208.37 -18.73 L-208.37 -20.46 L-206.64 -25.08 L-205.49 -31.42 L-203.76 -36.03 L-204.34 -36.6 L-204.34 -38.33 L-204.91 -38.91 L-206.07 -44.67 L-207.22 -46.98 L-208.37 -53.32 L-220.48 -65.43 L-204.91 -66 L-204.62 -92.81 L204.65 -92.81 L204.93 -66 L220.5 -65.43 L208.39 -53.32 L207.82 -49.29 L207.24 -48.71 L206.09 -42.94 L205.51 -42.37 L205.51 -40.64 L203.78 -36.03 L205.51 -31.42 L206.09 -27.38 L206.66 -26.8 L206.66 -25.08 L207.82 -22.77 L207.82 -21.04 L208.39 -20.46 L208.97 -17.58 L221.94 -4.61 L225.97 -4.04 L230.59 -2.31 L232.31 -2.31 L234.62 -1.15 L240.96 0 L243.27 -1.15 L245 -1.15 L245.57 -1.73 L247.3 -1.73 L251.91 -3.46 L257.68 -4.61 L271.22 -18.16 L271.8 -21.04 L272.38 -21.62 L272.38 -23.35 L272.95 -23.92 L272.95 -25.65 L274.11 -27.96 L275.26 -34.3 L275.84 -34.87 L275.84 -37.18 L275.26 -37.76 L274.11 -44.1 L272.95 -46.4 L272.95 -48.13 L272.38 -48.71 L272.38 -50.44 L271.8 -51.01 L271.22 -53.9 L259.7 -65.43 L274.97 -65.71 L275.55 -80.12 L329.73 -80.12 L330.02 -114.42 L346.74 -115 L346.74 -174.95 L320.22 -175.53 L320.22 -811.91 L343.28 -812.49 L343.28 -901.84 L330.02 -902.41 L329.73 -922.3 L270.36 -922.3 L269.78 -909.04 L-269.76 -909.04 L-270.34 -922.3 Z"/></g>
  <g id="lines" fill="none" stroke="#d7dde4" stroke-width="2" stroke-linecap="round" stroke-linejoin="round">
    <g id="base">
      <path d="M275 -80.12 L275 -66 L205 -66 L205 -92.8"/>
      <path d="M259.62 -65.56 L271.18 -54 L276 -36 L271.18 -18 L258 -4.82 L240 0 L222 -4.82 L208.82 -18 L204 -36 L208.82 -54 L219.57 -64.74"/>
      <path d="M-205 -92.8 L-205 -66 L-275 -66 L-275 -80.12"/>
      <path d="M-219.57 -64.74 L-208.82 -54 L-204 -36 L-208.82 -18 L-222 -4.82 L-240 0 L-258 -4.82 L-271.18 -18 L-276 -36 L-271.18 -54 L-259.62 -65.56"/>
      <path d="M238.89 -0.3 L238.06 -0.52"/>
      <path d="M236.4 -0.96 L235.85 -1.11"/>
      <path d="M234.18 -1.56 L233.63 -1.71"/>
      <path d="M232.52 -2 L231.42 -2.3"/>
      <path d="M230.03 -2.67 L229.48 -2.82"/>
      <path d="M227.82 -3.26 L227.26 -3.41"/>
      <path d="M226.15 -3.71 L225.05 -4.01"/>
      <path d="M223.94 -4.3 L222.83 -4.6"/>
      <path d="M241.38 -0.37 L241.94 -0.52"/>
      <path d="M243.05 -0.82 L244.15 -1.11"/>
      <path d="M245.54 -1.48 L246.37 -1.71"/>
      <path d="M247.75 -2.08 L248.58 -2.3"/>
      <path d="M249.97 -2.67 L250.52 -2.82"/>
      <path d="M251.63 -3.12 L252.74 -3.41"/>
      <path d="M254.12 -3.78 L254.95 -4.01"/>
      <path d="M256.34 -4.38 L257.17 -4.6"/>
      <path d="M208.82 -18 L208.75 -18.28"/>
      <path d="M208.38 -19.66 L208.16 -20.49"/>
      <path d="M207.78 -21.88 L207.49 -22.98"/>
      <path d="M207.19 -24.09 L207.04 -24.65"/>
      <path d="M206.6 -26.31 L206.45 -26.86"/>
      <path d="M206.08 -28.25 L205.78 -29.35"/>
      <path d="M205.48 -30.46 L205.19 -31.57"/>
      <path d="M204.89 -32.68 L204.74 -33.23"/>
      <path d="M204.3 -34.89 L204.07 -35.72"/>
      <path d="M204.15 -36.55 L204.3 -37.11"/>
      <path d="M204.74 -38.77 L204.89 -39.32"/>
      <path d="M205.19 -40.43 L205.48 -41.54"/>
      <path d="M205.86 -42.92 L206.08 -43.75"/>
      <path d="M206.45 -45.14 L206.6 -45.69"/>
      <path d="M207.04 -47.35 L207.19 -47.91"/>
      <path d="M207.49 -49.02 L207.78 -50.12"/>
      <path d="M208.16 -51.51 L208.38 -52.34"/>
      <path d="M208.75 -53.72 L211.66 -56.84"/>
      <path d="M212.07 -57.24 L215.11 -60.28"/>
      <path d="M215.51 -60.69 L215.72 -60.89"/>
      <path d="M216.12 -61.3 L219.16 -64.34"/>
      <path d="M259.82 -65.35 L260.03 -65.15"/>
      <path d="M261.45 -63.73 L261.65 -63.53"/>
      <path d="M262.05 -63.12 L262.26 -62.92"/>
      <path d="M262.66 -62.51 L262.87 -62.31"/>
      <path d="M263.27 -61.91 L263.47 -61.7"/>
      <path d="M264.89 -60.28 L265.1 -60.08"/>
      <path d="M265.5 -59.68 L265.7 -59.47"/>
      <path d="M266.11 -59.07 L266.31 -58.87"/>
      <path d="M266.72 -58.46 L266.92 -58.26"/>
      <path d="M267.33 -57.85 L267.53 -57.65"/>
      <path d="M268.95 -56.23 L269.15 -56.03"/>
      <path d="M269.56 -55.62 L269.76 -55.42"/>
      <path d="M270.16 -55.01 L270.37 -54.81"/>
      <path d="M270.77 -54.41 L270.97 -54.2"/>
      <path d="M271.25 -53.72 L271.4 -53.17"/>
      <path d="M271.84 -51.51 L271.99 -50.95"/>
      <path d="M272.44 -49.29 L272.66 -48.46"/>
      <path d="M272.96 -47.35 L273.25 -46.25"/>
      <path d="M273.55 -45.14 L273.7 -44.58"/>
      <path d="M274.14 -42.92 L274.37 -42.09"/>
      <path d="M274.74 -40.71 L274.96 -39.88"/>
      <path d="M275.33 -38.49 L275.55 -37.66"/>
      <path d="M275.85 -36.55 L276 -36 L275.85 -35.45"/>
      <path d="M275.55 -34.34 L275.33 -33.51"/>
      <path d="M274.96 -32.12 L274.74 -31.29"/>
      <path d="M274.37 -29.91 L274.14 -29.08"/>
      <path d="M273.7 -27.42 L273.55 -26.86"/>
      <path d="M273.25 -25.75 L272.96 -24.65"/>
      <path d="M272.66 -23.54 L272.44 -22.71"/>
      <path d="M272.07 -21.32 L271.84 -20.49"/>
      <path d="M271.4 -18.83 L271.25 -18.28"/>
      <path d="M270.97 -17.8 L270.77 -17.59"/>
      <path d="M270.37 -17.19 L270.16 -16.99"/>
      <path d="M269.76 -16.58 L269.56 -16.38"/>
      <path d="M269.15 -15.97 L268.95 -15.77"/>
      <path d="M268.14 -14.96 L267.93 -14.76"/>
      <path d="M267.53 -14.35 L267.33 -14.15"/>
      <path d="M266.92 -13.74 L266.72 -13.54"/>
      <path d="M266.31 -13.13 L266.11 -12.93"/>
      <path d="M265.7 -12.53 L265.5 -12.32"/>
      <path d="M265.1 -11.92 L264.49 -11.31"/>
      <path d="M264.08 -10.9 L263.88 -10.7"/>
      <path d="M263.47 -10.3 L263.27 -10.09"/>
      <path d="M262.87 -9.69 L262.66 -9.49"/>
      <path d="M262.26 -9.08 L262.05 -8.88"/>
      <path d="M261.65 -8.47 L261.04 -7.86"/>
      <path d="M260.64 -7.46 L260.43 -7.26"/>
      <path d="M260.03 -6.85 L259.82 -6.65"/>
      <path d="M259.42 -6.24 L259.22 -6.04"/>
      <path d="M258.81 -5.63 L258.61 -5.43"/>
      <path d="M258.2 -5.03 L258 -4.82"/>
      <path d="M-241.38 -0.37 L-241.94 -0.52"/>
      <path d="M-243.05 -0.82 L-244.15 -1.11"/>
      <path d="M-245.54 -1.48 L-246.37 -1.71"/>
      <path d="M-247.75 -2.08 L-248.58 -2.3"/>
      <path d="M-249.97 -2.67 L-250.52 -2.82"/>
      <path d="M-251.63 -3.12 L-252.74 -3.41"/>
      <path d="M-254.12 -3.78 L-254.95 -4.01"/>
      <path d="M-256.34 -4.38 L-257.17 -4.6"/>
      <path d="M-238.89 -0.3 L-238.06 -0.52"/>
      <path d="M-236.4 -0.96 L-235.85 -1.11"/>
      <path d="M-234.74 -1.41 L-233.63 -1.71"/>
      <path d="M-232.52 -2 L-231.42 -2.3"/>
      <path d="M-230.03 -2.67 L-229.48 -2.82"/>
      <path d="M-227.82 -3.26 L-227.26 -3.41"/>
      <path d="M-226.15 -3.71 L-225.05 -4.01"/>
      <path d="M-223.66 -4.38 L-222.83 -4.6"/>
      <path d="M-258 -4.82 L-258.2 -5.03"/>
      <path d="M-258.61 -5.43 L-258.81 -5.63"/>
      <path d="M-259.22 -6.04 L-259.42 -6.24"/>
      <path d="M-259.82 -6.65 L-260.03 -6.85"/>
      <path d="M-260.43 -7.26 L-261.65 -8.47"/>
      <path d="M-262.05 -8.88 L-262.26 -9.08"/>
      <path d="M-262.66 -9.49 L-262.87 -9.69"/>
      <path d="M-263.27 -10.09 L-263.47 -10.3"/>
      <path d="M-263.88 -10.7 L-264.08 -10.9"/>
      <path d="M-264.49 -11.31 L-265.1 -11.92"/>
      <path d="M-265.5 -12.32 L-265.7 -12.53"/>
      <path d="M-266.11 -12.93 L-266.31 -13.13"/>
      <path d="M-266.72 -13.54 L-266.92 -13.74"/>
      <path d="M-267.33 -14.15 L-267.53 -14.35"/>
      <path d="M-267.93 -14.76 L-268.54 -15.36"/>
      <path d="M-268.95 -15.77 L-269.15 -15.97"/>
      <path d="M-269.56 -16.38 L-269.76 -16.58"/>
      <path d="M-270.16 -16.99 L-270.37 -17.19"/>
      <path d="M-270.77 -17.59 L-270.97 -17.8"/>
      <path d="M-271.25 -18.28 L-271.4 -18.83"/>
      <path d="M-271.84 -20.49 L-272.07 -21.32"/>
      <path d="M-272.36 -22.43 L-272.66 -23.54"/>
      <path d="M-272.96 -24.65 L-273.11 -25.2"/>
      <path d="M-273.55 -26.86 L-273.7 -27.42"/>
      <path d="M-274.14 -29.08 L-274.37 -29.91"/>
      <path d="M-274.66 -31.02 L-274.96 -32.12"/>
      <path d="M-275.26 -33.23 L-275.41 -33.78"/>
      <path d="M-275.85 -35.45 L-276 -36 L-275.85 -36.55"/>
      <path d="M-275.41 -38.22 L-275.26 -38.77"/>
      <path d="M-274.96 -39.88 L-274.66 -40.98"/>
      <path d="M-274.37 -42.09 L-274.14 -42.92"/>
      <path d="M-273.7 -44.58 L-273.55 -45.14"/>
      <path d="M-273.25 -46.25 L-272.96 -47.35"/>
      <path d="M-272.66 -48.46 L-272.36 -49.57"/>
      <path d="M-271.99 -50.95 L-271.84 -51.51"/>
      <path d="M-271.4 -53.17 L-271.25 -53.72"/>
      <path d="M-270.97 -54.2 L-270.77 -54.41"/>
      <path d="M-270.37 -54.81 L-270.16 -55.01"/>
      <path d="M-269.76 -55.42 L-269.56 -55.62"/>
      <path d="M-269.15 -56.03 L-268.95 -56.23"/>
      <path d="M-268.54 -56.64 L-268.34 -56.84"/>
      <path d="M-267.53 -57.65 L-267.33 -57.85"/>
      <path d="M-266.92 -58.26 L-266.72 -58.46"/>
      <path d="M-266.31 -58.87 L-266.11 -59.07"/>
      <path d="M-265.7 -59.47 L-265.5 -59.68"/>
      <path d="M-265.1 -60.08 L-264.89 -60.28"/>
      <path d="M-263.47 -61.7 L-263.27 -61.91"/>
      <path d="M-262.87 -62.31 L-262.66 -62.51"/>
      <path d="M-262.26 -62.92 L-262.05 -63.12"/>
      <path d="M-261.65 -63.53 L-261.45 -63.73"/>
      <path d="M-261.04 -64.14 L-260.84 -64.34"/>
      <path d="M-260.03 -65.15 L-259.82 -65.35"/>
      <path d="M-219.16 -64.34 L-218.96 -64.14"/>
      <path d="M-218.55 -63.73 L-216.12 -61.3"/>
      <path d="M-215.72 -60.89 L-215.51 -60.69"/>
      <path d="M-215.11 -60.28 L-212.07 -57.24"/>
      <path d="M-211.66 -56.84 L-211.46 -56.64"/>
      <path d="M-211.05 -56.23 L-208.75 -53.72"/>
      <path d="M-208.3 -52.06 L-208.16 -51.51"/>
      <path d="M-207.78 -50.12 L-207.49 -49.02"/>
      <path d="M-207.19 -47.91 L-206.89 -46.8"/>
      <path d="M-206.6 -45.69 L-206.45 -45.14"/>
      <path d="M-206 -43.48 L-205.86 -42.92"/>
      <path d="M-205.48 -41.54 L-205.19 -40.43"/>
      <path d="M-204.89 -39.32 L-204.74 -38.77"/>
      <path d="M-204.3 -37.11 L-204.15 -36.55"/>
      <path d="M-204.07 -35.72 L-204.3 -34.89"/>
      <path d="M-204.74 -33.23 L-204.89 -32.68"/>
      <path d="M-205.19 -31.57 L-205.48 -30.46"/>
      <path d="M-205.78 -29.35 L-206 -28.52"/>
      <path d="M-206.45 -26.86 L-206.6 -26.31"/>
      <path d="M-207.04 -24.65 L-207.19 -24.09"/>
      <path d="M-207.49 -22.98 L-207.78 -21.88"/>
      <path d="M-208.16 -20.49 L-208.3 -19.94"/>
      <path d="M-208.75 -18.28 L-211.05 -15.77"/>
      <path d="M-211.46 -15.36 L-222 -4.82"/>
      <path d="M269.86 -100 L-269.86 -100"/>
      <path d="M320 -140.26 L320 -190 L-320 -190 L-320 -140.26"/>
      <path d="M320 -190 L320 -812.3 L-320 -812.3 L-320 -190"/>
      <path d="M320 -812.3 L320 -862.33"/>
      <path d="M-320 -812.3 L-320 -862.33"/>
      <path d="M269.86 -902.3 L-269.86 -902.3"/>
      <path d="M317 -140.26 L317 -175 L347 -175 L347 -115 L330.14 -115"/>
      <path d="M343 -902.3 L330.14 -902.3 L343 -902.3 L343 -812.3 L320.43 -812.3"/>
      <path d="M347 -115 L347 -175"/>
      <path d="M269.83 -93 L-269.83 -93"/>
      <path d="M269.83 -115 L-269.83 -115"/>
      <path d="M269.83 -887.3 L-269.83 -887.3"/>
      <path d="M269.83 -909.3 L-269.83 -909.3 Z"/>
      <path d="M330 -80 L270 -80 L270 -140 L330 -140 L330 -80 L275.45 -80"/>
      <path d="M330 -862.3 L270 -862.3 L270 -922.3 L330 -922.3 Z"/>
      <path d="M-270 -80 L-330 -80 L-330 -140 L-270 -140 Z"/>
      <path d="M-270 -862.3 L-330 -862.3 L-330 -922.3 L-270 -922.3 Z"/>
      <path d="M270 -909.09 L270 -922.3 L271.72 -922.3"/>
      <path d="M330 -922.3 L319.95 -922.3"/>
      <path d="M319.38 -922.3 L317.66 -922.3"/>
      <path d="M317.08 -922.3 L315.36 -922.3"/>
      <path d="M314.78 -922.3 L313.06 -922.3"/>
      <path d="M312.49 -922.3 L310.77 -922.3"/>
      <path d="M309.62 -922.3 L307.89 -922.3"/>
      <path d="M307.32 -922.3 L305.6 -922.3"/>
      <path d="M305.02 -922.3 L300.72 -922.3"/>
      <path d="M300.14 -922.3 L274.59 -922.3"/>
      <path d="M274.02 -922.3 L273.44 -922.3"/>
      <path d="M272.87 -922.3 L272.3 -922.3"/>
      <path d="M-275.45 -80 L-330 -80"/>
      <path d="M-320.24 -862.3 L-330 -862.3"/>
      <path d="M-270 -909.09 L-270 -922.3 L-280.05 -922.3"/>
      <path d="M-280.62 -922.3 L-282.34 -922.3"/>
      <path d="M-282.92 -922.3 L-284.64 -922.3"/>
      <path d="M-285.22 -922.3 L-286.94 -922.3"/>
      <path d="M-287.51 -922.3 L-289.23 -922.3"/>
      <path d="M-290.38 -922.3 L-292.11 -922.3"/>
      <path d="M-292.68 -922.3 L-294.4 -922.3"/>
      <path d="M-294.98 -922.3 L-299.28 -922.3"/>
      <path d="M-299.86 -922.3 L-325.41 -922.3"/>
      <path d="M-325.98 -922.3 L-326.56 -922.3"/>
      <path d="M-327.13 -922.3 L-327.7 -922.3"/>
      <path d="M-328.28 -922.3 L-330 -922.3"/>
    </g>
  </g>
  <g id="origin" fill="none" stroke="#e5484d" stroke-width="2"><path d="M-20 0 H20 M0 -20 V20"/></g>
</svg>
