<svg xmlns="http://www.w3.org/2000/svg" width="1024" height="1024" viewBox="0 0 1024 1024" role="img" aria-labelledby="title description">
  <title id="title">ToskLight Hardware Controls print icon</title>
  <desc id="description">A print-ready icon with three ascending control faders.</desc>
  <defs>
    <linearGradient id="tile" x1="150" y1="96" x2="852" y2="930" gradientUnits="userSpaceOnUse">
      <stop offset="0" stop-color="#0b1731"/>
      <stop offset="1" stop-color="#020713"/>
    </linearGradient>
    <linearGradient id="track" x1="0" y1="0" x2="1" y2="0">
      <stop offset="0" stop-color="#cdd7e4"/>
      <stop offset="0.4" stop-color="#ffffff"/>
      <stop offset="1" stop-color="#b9c4d2"/>
    </linearGradient>
    <linearGradient id="cap" x1="0" y1="0" x2="0.85" y2="1">
      <stop offset="0" stop-color="#ffffff"/>
      <stop offset="1" stop-color="#cbd5e2"/>
    </linearGradient>
    <linearGradient id="indicator" x1="0" y1="0" x2="1" y2="0">
      <stop offset="0" stop-color="#1674d2"/>
      <stop offset="0.5" stop-color="#66e6ff"/>
      <stop offset="1" stop-color="#1598ea"/>
    </linearGradient>
  </defs>
  <rect x="54" y="42" width="916" height="916" rx="198" fill="url(#tile)"/>
  <rect x="57" y="45" width="910" height="910" rx="195" fill="none" stroke="#7b9ed2" stroke-opacity="0.28" stroke-width="6"/>
  <path d="M302 704 512 520 722 342" fill="none" stroke="#55d8ff" stroke-width="10" stroke-linecap="round" stroke-linejoin="round"/>
  <g fill="url(#track)">
    <rect x="284" y="224" width="36" height="602" rx="18"/>
    <rect x="494" y="224" width="36" height="602" rx="18"/>
    <rect x="704" y="224" width="36" height="602" rx="18"/>
  </g>
  <g fill="url(#cap)" stroke="#ffffff" stroke-width="4">
    <rect x="236" y="642" width="132" height="128" rx="22"/>
    <rect x="446" y="456" width="132" height="128" rx="22"/>
    <rect x="656" y="278" width="132" height="128" rx="22"/>
  </g>
  <g fill="url(#indicator)">
    <rect x="238" y="696" width="128" height="20"/>
    <rect x="448" y="510" width="128" height="20"/>
    <rect x="658" y="332" width="128" height="20"/>
  </g>
</svg>
