<svg xmlns="http://www.w3.org/2000/svg" width="512" height="512" viewBox="0 0 512 512" role="img" aria-label="ToskLight application icon">
  <defs>
    <linearGradient id="backdrop" x1="84" y1="40" x2="428" y2="472" gradientUnits="userSpaceOnUse">
      <stop offset="0" stop-color="#16212a"/>
      <stop offset="0.46" stop-color="#091015"/>
      <stop offset="1" stop-color="#05070a"/>
    </linearGradient>
    <radialGradient id="stageGlow" cx="256" cy="178" r="260" gradientUnits="userSpaceOnUse">
      <stop offset="0" stop-color="#173b44"/>
      <stop offset="0.58" stop-color="#091015" stop-opacity="0.32"/>
      <stop offset="1" stop-color="#020304" stop-opacity="0"/>
    </radialGradient>
    <linearGradient id="beam" x1="243" y1="152" x2="357" y2="433" gradientUnits="userSpaceOnUse">
      <stop offset="0" stop-color="#fff1aa" stop-opacity="0.98"/>
      <stop offset="0.27" stop-color="#ffc54c" stop-opacity="0.62"/>
      <stop offset="1" stop-color="#ffb30f" stop-opacity="0"/>
    </linearGradient>
    <linearGradient id="cyan" x1="136" y1="94" x2="366" y2="402" gradientUnits="userSpaceOnUse">
      <stop offset="0" stop-color="#8ff7ff"/>
      <stop offset="0.48" stop-color="#1bd6ec"/>
      <stop offset="1" stop-color="#0d7e95"/>
    </linearGradient>
    <linearGradient id="warm" x1="205" y1="118" x2="303" y2="238" gradientUnits="userSpaceOnUse">
      <stop offset="0" stop-color="#fff7cf"/>
      <stop offset="0.56" stop-color="#ffd562"/>
      <stop offset="1" stop-color="#ff9f1c"/>
    </linearGradient>
    <filter id="softShadow" x="-20%" y="-20%" width="140%" height="150%" color-interpolation-filters="sRGB">
      <feDropShadow dx="0" dy="18" stdDeviation="18" flood-color="#000000" flood-opacity="0.48"/>
    </filter>
    <filter id="cyanGlow" x="-50%" y="-50%" width="200%" height="200%" color-interpolation-filters="sRGB">
      <feDropShadow dx="0" dy="0" stdDeviation="7" flood-color="#1bd6ec" flood-opacity="0.58"/>
    </filter>
    <clipPath id="squircle">
      <rect x="24" y="24" width="464" height="464" rx="104"/>
    </clipPath>
  </defs>

  <rect width="512" height="512" rx="112" fill="url(#backdrop)"/>
  <g clip-path="url(#squircle)">
    <rect x="24" y="24" width="464" height="464" rx="104" fill="url(#stageGlow)"/>
    <path d="M256 156 118 472h276L286 156z" fill="url(#beam)" opacity="0.9"/>
    <path d="M58 401h396M78 342h356M96 286h320M124 236h264" fill="none" stroke="#23323b" stroke-width="3" opacity="0.7"/>
    <path d="M133 477 256 152M379 477 256 152" fill="none" stroke="#18252d" stroke-width="4" opacity="0.75"/>
  </g>

  <rect x="24" y="24" width="464" height="464" rx="104" fill="none" stroke="#ffffff" stroke-opacity="0.08" stroke-width="2"/>
  <rect x="38" y="38" width="436" height="436" rx="92" fill="none" stroke="#1bd6ec" stroke-opacity="0.32" stroke-width="5"/>

  <g filter="url(#softShadow)">
    <path d="M150 116h212c13.255 0 24 10.745 24 24v16c0 13.255-10.745 24-24 24h-74v194h76c11.046 0 20 8.954 20 20v16c0 11.046-8.954 20-20 20H226V180h-76c-13.255 0-24-10.745-24-24v-16c0-13.255 10.745-24 24-24z" fill="#071218"/>
    <path d="M150 104h212c13.255 0 24 10.745 24 24v16c0 13.255-10.745 24-24 24h-72v194h74c11.046 0 20 8.954 20 20v16c0 11.046-8.954 20-20 20H214V168h-64c-13.255 0-24-10.745-24-24v-16c0-13.255 10.745-24 24-24z" fill="url(#cyan)" filter="url(#cyanGlow)"/>
    <path d="M160 122h192c5.523 0 10 4.477 10 10v8c0 5.523-4.477 10-10 10H262v242h-30V150h-72c-5.523 0-10-4.477-10-10v-8c0-5.523 4.477-10 10-10z" fill="#d9fbff" opacity="0.22"/>
  </g>

  <g filter="url(#softShadow)">
    <circle cx="256" cy="166" r="55" fill="#071218"/>
    <circle cx="256" cy="158" r="47" fill="url(#warm)"/>
    <circle cx="256" cy="158" r="29" fill="#fff6c4" opacity="0.9"/>
    <circle cx="241" cy="142" r="10" fill="#ffffff" opacity="0.82"/>
    <path d="M210 178a51 51 0 0 0 92 0" fill="none" stroke="#8b5208" stroke-opacity="0.32" stroke-width="8" stroke-linecap="round"/>
  </g>
</svg>
