<svg xmlns="http://www.w3.org/2000/svg" width="1024" height="1024" viewBox="0 0 1024 1024" role="img" aria-labelledby="title description">
  <title id="title">ToskLight Hardware Controls application icon</title>
  <desc id="description">Three ascending white control faders connected by a blue light line on a dark navy tile.</desc>
  <defs>
    <linearGradient id="tile" x1="176" y1="82" x2="842" y2="944" gradientUnits="userSpaceOnUse">
      <stop offset="0" stop-color="#0b1731"/>
      <stop offset="0.5" stop-color="#061026"/>
      <stop offset="1" stop-color="#020713"/>
    </linearGradient>
    <linearGradient id="track" x1="0" y1="0" x2="1" y2="0">
      <stop offset="0" stop-color="#cdd7e4"/>
      <stop offset="0.34" stop-color="#ffffff"/>
      <stop offset="0.72" stop-color="#f7f9fc"/>
      <stop offset="1" stop-color="#b9c4d2"/>
    </linearGradient>
    <linearGradient id="cap" x1="0" y1="0" x2="0.85" y2="1">
      <stop offset="0" stop-color="#ffffff"/>
      <stop offset="0.58" stop-color="#f6f8fc"/>
      <stop offset="1" stop-color="#cbd5e2"/>
    </linearGradient>
    <linearGradient id="indicator" x1="0" y1="0" x2="1" y2="0">
      <stop offset="0" stop-color="#1674d2"/>
      <stop offset="0.5" stop-color="#66e6ff"/>
      <stop offset="1" stop-color="#1598ea"/>
    </linearGradient>
    <radialGradient id="ambientGlow" cx="0.5" cy="0.5" r="0.5">
      <stop offset="0" stop-color="#087fd1" stop-opacity="0.25"/>
      <stop offset="0.46" stop-color="#075da8" stop-opacity="0.14"/>
      <stop offset="1" stop-color="#03142c" stop-opacity="0"/>
    </radialGradient>
    <radialGradient id="controlBloom" cx="0.5" cy="0.5" r="0.5">
      <stop offset="0" stop-color="#6be7ff" stop-opacity="0.38"/>
      <stop offset="0.32" stop-color="#19b8ff" stop-opacity="0.2"/>
      <stop offset="1" stop-color="#0965d8" stop-opacity="0"/>
    </radialGradient>
  </defs>

  <rect x="54" y="60" width="916" height="916" rx="198" fill="#000000" opacity="0.48"/>
  <rect x="54" y="42" width="916" height="916" rx="198" fill="url(#tile)"/>
  <ellipse cx="512" cy="522" rx="430" ry="380" fill="url(#ambientGlow)"/>
  <rect x="57" y="45" width="910" height="910" rx="195" fill="none" stroke="#7b9ed2" stroke-opacity="0.18" stroke-width="6"/>

  <path d="M170 818 302 704 512 520 722 342 852 230" fill="none" stroke="#0b75e3" stroke-opacity="0.09" stroke-width="118" stroke-linecap="round" stroke-linejoin="round"/>
  <path d="M170 818 302 704 512 520 722 342 852 230" fill="none" stroke="#13aef5" stroke-opacity="0.25" stroke-width="48" stroke-linecap="round" stroke-linejoin="round"/>
  <path d="M170 818 302 704 512 520 722 342 852 230" fill="none" stroke="#65e2ff" stroke-opacity="0.5" stroke-width="20" stroke-linecap="round" stroke-linejoin="round"/>
  <path d="M170 818 302 704 512 520 722 342 852 230" fill="none" stroke="#7eeaff" stroke-width="8" stroke-linecap="round" stroke-linejoin="round"/>
  <g>
    <ellipse cx="302" cy="706" rx="132" ry="108" fill="url(#controlBloom)"/>
    <ellipse cx="512" cy="520" rx="132" ry="108" fill="url(#controlBloom)"/>
    <ellipse cx="722" cy="342" rx="132" ry="108" fill="url(#controlBloom)"/>
  </g>

  <g fill="url(#track)">
    <rect x="284" y="224" width="36" height="602" rx="18"/>
    <rect x="494" y="224" width="36" height="602" rx="18"/>
    <rect x="704" y="224" width="36" height="602" rx="18"/>
  </g>

  <g fill="#000713" opacity="0.48">
    <rect x="236" y="650" width="132" height="128" rx="22"/>
    <rect x="446" y="464" width="132" height="128" rx="22"/>
    <rect x="656" y="286" width="132" height="128" rx="22"/>
  </g>

  <g>
    <g>
      <rect x="236" y="642" width="132" height="128" rx="22" fill="url(#cap)" stroke="#ffffff" stroke-width="4"/>
      <rect x="238" y="696" width="128" height="20" fill="url(#indicator)"/>
      <path d="M250 656h104" stroke="#ffffff" stroke-opacity="0.62" stroke-width="5" stroke-linecap="round"/>
    </g>
    <g>
      <rect x="446" y="456" width="132" height="128" rx="22" fill="url(#cap)" stroke="#ffffff" stroke-width="4"/>
      <rect x="448" y="510" width="128" height="20" fill="url(#indicator)"/>
      <path d="M460 470h104" stroke="#ffffff" stroke-opacity="0.62" stroke-width="5" stroke-linecap="round"/>
    </g>
    <g>
      <rect x="656" y="278" width="132" height="128" rx="22" fill="url(#cap)" stroke="#ffffff" stroke-width="4"/>
      <rect x="658" y="332" width="128" height="20" fill="url(#indicator)"/>
      <path d="M670 292h104" stroke="#ffffff" stroke-opacity="0.62" stroke-width="5" stroke-linecap="round"/>
    </g>
  </g>
</svg>
